<?xml version="1.0" encoding="utf-8"?>
<!-- Generator: Adobe Illustrator 16.0.3, SVG Export Plug-In . SVG Version: 6.00 Build 0)  -->
<!DOCTYPE svg PUBLIC "-//W3C//DTD SVG 1.1//EN" "http://www.w3.org/Graphics/SVG/1.1/DTD/svg11.dtd">
<svg version="1.1" id="Capa_1" xmlns="http://www.w3.org/2000/svg" xmlns:xlink="http://www.w3.org/1999/xlink" x="0px" y="0px"
	 width="314px" height="419px" viewBox="0 0 314 419" enable-background="new 0 0 314 419" xml:space="preserve">
<path fill-rule="evenodd" clip-rule="evenodd" fill="#007550" d="M271.094,243.954c-5.699,9.604-12.197,18.679-18.457,27.912
	c-1.299,1.917-2.705,3.763-4.062,5.642c-0.8-0.337-1.651-0.585-2.392-1.024c-6.487-3.838-12.943-7.717-19.234-11.884
	c-12.805-8.479-24.375-18.432-35.38-29.078c-5.789-5.601-11.019-11.725-16.3-17.797c-0.369-0.47-0.738-0.941-1.344-1.714
	c0,1.158,0,1.874,0,2.589c-0.004,33.203-0.014,66.406-0.008,99.609c0.002,18.018,0.031,36.035,0.049,54.053
	c-3.144,4.528-6.714,8.717-11.012,12.148c-5.81,4.637-10.586,4.641-16.561,0.213c-4.457-3.303-7.691-7.814-11.285-11.963
	c0-52.102,0-104.202,0-156.764c-0.667,0.891-1.012,1.352-1.356,1.812c-1.465,1.694-2.9,3.416-4.401,5.078
	c-5.787,6.41-11.625,12.758-18.027,18.59c-4.936,4.497-9.93,8.923-15.106,13.123c-10.392,8.429-21.707,15.507-33.379,22.01
	c-1.201,0.669-1.465,1.35-1.145,2.509c-8.272-11.01-15.772-22.538-23.019-34.238c0.281-0.15,0.563-0.3,0.843-0.45
	c4.57-2.383,9.113-4.819,13.47-7.579c11.79-7.468,23.044-15.65,33.174-25.289c5.58-5.31,10.96-10.82,15.63-16.969
	c3.204-4.22,6.292-8.529,8.917-13.139c2.074-3.642,1.701-5.693-1.272-8.756c-1.668-1.719-3.403-3.365-4.991-5.173
	c-4.222-4.806-8.087-9.858-11.604-15.207c-2.01-3.055-4.659-3.531-7.952-1.899c-1.886,0.934-3.703,2.007-5.574,2.973
	c-10.868,5.608-22.175,10.101-33.92,13.53c-12.051,3.519-24.319,5.868-36.786,7.243c-2.193-11.995-2.633-24.054-1.32-36.178
	c0.271-0.023,0.542-0.046,0.813-0.069c4.103-0.466,8.124-1.387,12.125-2.348c20.594-4.946,39.642-13.484,57.42-24.922
	c12.649-8.138,24.064-17.708,33.598-29.395c5.932-7.271,11.112-15.068,15.247-23.504c4.458-9.096,7.568-18.665,9.32-28.647
	c1.101-6.273,1.93-12.585,1.83-18.98c0.034-0.146,0.068-0.292,0.102-0.438c8.763-0.964,17.55-1.201,26.326-0.405
	c2.269,0.205,4.552,0.06,6.8,0.442c0.07,0.444,0.006,0.931,0.399,1.273c-0.002,4.718,0.679,9.366,1.29,14.033
	c1.356,10.357,4.305,20.233,8.66,29.693c7.457,16.199,18.219,29.907,31.586,41.637c9.639,8.459,20.236,15.522,31.517,21.565
	c12.376,6.63,25.279,11.991,38.821,15.769c5.714,1.593,11.452,3.064,17.341,3.868c0.331,0.431,0.822,0.354,1.274,0.405
	c1.385,11.389,0.8,22.729-0.855,34.042c-0.105,0.714-0.311,1.414-0.469,2.121c-2.396-0.979-4.982-0.86-7.475-1.178
	c-11.1-1.415-21.928-3.993-32.593-7.293c-12.241-3.789-23.924-8.932-35.313-14.778c-4.537-2.33-6.716-1.803-9.338,2.311
	c-4.591,7.203-10.04,13.678-16.157,19.619c-2.866,2.785-3.179,4.583-1.283,8.161c4.377,8.265,10.055,15.605,16.43,22.399
	c7.319,7.797,15.476,14.675,23.873,21.273c9.273,7.285,19.165,13.601,29.663,18.972
	C269.156,243.976,270.031,244.522,271.094,243.954z M154.346,158.429c17.645,0.419,33.232-14.203,33.43-33.422
	c0.193-18.86-15.204-32.222-31.789-32.95c-17.784-0.78-34.45,11.738-35.089,31.8C120.215,145.255,137.081,158.626,154.346,158.429z"
	/>
<path fill-rule="evenodd" clip-rule="evenodd" fill="#36A558" d="M137.644,10.02c0.1,6.395-0.729,12.707-1.83,18.98
	c-1.752,9.982-4.862,19.551-9.32,28.647c-4.134,8.436-9.314,16.233-15.247,23.504c-9.534,11.686-20.949,21.257-33.598,29.395
	c-17.779,11.438-36.827,19.977-57.42,24.922c-4.001,0.961-8.021,1.882-12.125,2.348c-0.11-3.246,1.036-6.383,0.841-9.637
	c-0.11-1.32,0.177-2.589,0.507-3.852c0.244-0.255,0.641-0.476,0.708-0.771c0.819-3.584,1.538-7.192,2.692-10.693
	c0.137-0.417,0.051-0.868-0.347-1.177c0.769-2.33,1.537-4.66,2.305-6.989c0.953-0.229,1.072-1.134,1.371-1.823
	c1.007-2.32,1.935-4.675,2.883-7.021c0.338-0.836,1.152-1.578,0.55-2.614c0,0,0.03-0.101,0.032-0.101
	c0.922-0.024,0.589-0.689,0.604-1.178l-0.026,0.038c0.466-0.146,0.515-0.503,0.463-0.913l-0.027,0.04
	c0.468-0.149,0.515-0.506,0.456-0.917l-0.023,0.029c0.268-0.088,0.397-0.235,0.22-0.514c0,0,0.07-0.163,0.071-0.162
	c1.039-0.119,1.114-0.738,0.807-1.555c0,0,0.063-0.159,0.064-0.159c0.958,0.063,0.576-0.65,0.64-1.104l-0.015,0.02
	c1.537-0.493,1.729-1.742,1.741-3.093l-0.017,0.018c1.387-0.181,1.385-1.176,1.301-2.219c0,0-0.028,0.038-0.027,0.038
	c0.475-0.115,0.534-0.471,0.508-0.876l-0.016,0.021c1.001-0.007,0.951-0.668,0.848-1.362l-0.016,0.013
	c1.418-0.117,1.369-1.155,1.36-2.167c0,0-0.015,0.018-0.015,0.019c0.556-0.04,1.159-0.05,0.502-0.826
	c4.216-6.684,8.887-13.024,14.292-18.804c0.157-0.172,0.314-0.343,0.471-0.515l-0.032,0.019c0.992,0.067,1.48-0.32,1.233-1.369
	c0,0,0.015,0.002,0.016,0.002c0.318,0.008,0.458-0.137,0.396-0.457c0,0,0.025-0.026,0.026-0.025c0.328,0.04,0.461-0.081,0.343-0.411
	c0,0,0.09-0.093,0.092-0.092c0.337,0.1,0.444-0.006,0.302-0.335c0,0,0.146-0.145,0.147-0.144c0.328,0.128,0.423,0.033,0.281-0.29
	c0,0,0.107-0.132,0.108-0.131c0.611,0.184,0.598-0.253,0.634-0.639c1.295-1.297,2.59-2.594,3.885-3.891
	c0.38-0.04,0.823-0.017,0.623-0.63c0,0,0.148-0.11,0.149-0.108c0.334,0.149,0.416,0.034,0.303-0.286c0,0,0.119-0.108,0.12-0.107
	c0.339,0.12,0.447-0.004,0.355-0.336c0,0,0.077-0.066,0.078-0.064c0.335,0.092,0.459-0.043,0.404-0.372c0,0,0.035-0.023,0.036-0.023
	c0.324,0.058,0.465-0.083,0.441-0.403l0.07,0.096c0,0-0.065-0.092-0.064-0.092c0.313,0.03,0.464-0.116,0.465-0.425
	c0,0-0.006-0.004-0.005-0.004c0.707,0.176,0.999-0.116,0.927-0.82c0,0-0.022,0.039-0.022,0.039c0.17-0.161,0.339-0.322,0.509-0.483
	c8.445-7.814,17.93-14.14,28.08-19.493c2.677-1.411,5.457-2.629,8.189-3.936c0.225,0.306,0.33,0.196,0.376-0.11
	c0,0-0.021,0.021-0.02,0.021c1.972,0.362,3.444-0.965,5.076-1.616c9.612-3.833,19.464-6.77,29.696-8.39
	C130.564,11.142,134.104,10.581,137.644,10.02z"/>
<path fill-rule="evenodd" clip-rule="evenodd" fill="#2A8241" d="M300.485,137.456c-5.889-0.804-11.627-2.274-17.341-3.868
	c-13.542-3.777-26.445-9.139-38.821-15.769c-11.28-6.043-21.878-13.106-31.517-21.565c-13.367-11.73-24.129-25.438-31.586-41.637
	c-4.355-9.46-7.304-19.336-8.66-29.693c-0.611-4.667-1.292-9.314-1.289-14.033c1.938-1.014,3.801,0.215,5.707,0.191
	c2.044-0.026,4.028,1.281,6.116,0.273c0.149,0.021,0.298,0.041,0.446,0.061c0.32,1.081,1.34,0.978,2.121,1.165
	c2.24,0.536,4.5,0.988,6.758,1.448c2.323,0.473,4.502,1.565,6.926,1.603c0.118,0.001,0.234,0.021,0.346,0.06
	c0.289,0.206,0.551,0.494,0.871,0.605c4.758,1.644,9.563,3.157,14.121,5.326c0.432,0.205,0.84,0.149,1.148-0.262
	c0.166,0.079,0.332,0.157,0.498,0.235c0.891,1.528,2.268,2.02,3.953,1.851c0,0-0.037-0.027-0.037-0.027
	c0.142,0.471,0.5,0.52,0.909,0.466l-0.04-0.027c0.15,0.473,0.51,0.517,0.923,0.449L222,24.278c0.134,0.486,0.494,0.531,0.909,0.466
	c0,0-0.037-0.027-0.037-0.027c0.134,0.482,0.493,0.529,0.907,0.47l-0.041-0.027c0.137,0.472,0.493,0.524,0.902,0.479l-0.039-0.026
	c0.146,0.455,0.501,0.51,0.904,0.472l-0.038-0.023c0.153,0.442,0.505,0.5,0.902,0.47l-0.021-0.016
	c0.502,1.54,1.736,1.752,3.107,1.72l-0.029-0.023c0.079,0.279,0.235,0.409,0.528,0.274c0,0,0.101,0.041,0.1,0.041
	c-0.051,1.271,0.805,1.081,1.598,0.993c0,0-0.032-0.025-0.032-0.025c0.1,0.498,0.461,0.549,0.873,0.51l-0.018-0.017
	c-0.012,1.031,0.652,0.972,1.359,0.841c0,0-0.033-0.025-0.033-0.025c0.094,0.493,0.453,0.55,0.861,0.526l-0.021-0.017
	c0.37,1.38,1.325,1.852,2.669,1.723l-0.029-0.022c0.074,0.283,0.241,0.413,0.539,0.329l0.01,0.127c0,0,0.013-0.127,0.012-0.127
	c-0.03,0.604,0.358,0.606,0.787,0.552l-0.025-0.021c0.063,0.29,0.227,0.422,0.529,0.338l-0.006,0.146c0,0,0.027-0.144,0.027-0.143
	c-0.039,0.596,0.349,0.607,0.774,0.568c0,0-0.031-0.023-0.031-0.023c0.069,0.281,0.241,0.416,0.536,0.372
	c0,0,0.033-0.003,0.032-0.002c-0.005,0.11-0.011,0.219-0.015,0.329c0.086-0.059,0.174-0.118,0.26-0.177
	c2,1.285,3.96,2.625,5.727,4.227c0.064,0.291,0.234,0.456,0.545,0.449c0,0-0.02-0.043-0.02-0.042
	c0.005,0.543,0.384,0.593,0.793,0.601c0.139,0.118,0.276,0.235,0.414,0.353c-0.002,0.677,0.27,1.015,0.988,0.794l-0.15,0.03
	c0,0,0.152-0.017,0.152-0.017c0,0.317,0.127,0.456,0.448,0.321c0,0,0.084,0.061,0.083,0.062c-0.119,0.62,0.311,0.608,0.716,0.625
	c0.129,0.114,0.258,0.228,0.387,0.342c0.173,0.159,0.347,0.319,0.52,0.479c0,0-0.036-0.043-0.036-0.042
	c0.037,0.293,0.199,0.439,0.498,0.424l-0.102,0.071c0,0,0.084-0.091,0.084-0.09c0.01,0.315,0.157,0.454,0.476,0.374l-0.055,0.125
	c0,0,0.078-0.112,0.078-0.111c-0.07,0.572,0.315,0.605,0.723,0.613l-0.017-0.015c-0.013,0.633,0.289,0.925,0.926,0.852
	c0,0-0.033-0.025-0.033-0.025c0.166,0.151,0.332,0.302,0.497,0.453l-0.019-0.029c0.055,1.166,0.473,1.915,1.825,1.591
	c0,0,0.052,0.074,0.052,0.076c-0.066,0.333,0.059,0.461,0.392,0.37c0,0,0.062,0.064,0.061,0.065
	c-0.077,0.334,0.035,0.458,0.37,0.337c0,0,0.102,0.103,0.1,0.104c-0.104,0.335-0.002,0.447,0.332,0.309c0,0,0.13,0.132,0.129,0.133
	c-0.115,0.324-0.031,0.429,0.293,0.27c0,0,0.154,0.122,0.153,0.123c-0.197,0.625,0.253,0.594,0.637,0.63
	c1.001,1.008,2.001,2.016,3.003,3.024c0.033,0.389,0.033,0.812,0.633,0.652c0,0,0.072,0.098,0.07,0.1
	c-0.121,0.339-0.006,0.442,0.326,0.331c0,0,0.096,0.102,0.094,0.103c-0.107,0.339,0.014,0.449,0.346,0.351
	c0,0,0.072,0.087,0.072,0.088c-0.104,0.33,0.035,0.458,0.358,0.433c0,0,0.03,0.018,0.03,0.019c-0.275,1.07,0.212,1.452,1.227,1.358
	c0,0-0.027-0.013-0.027-0.013c0.022,0.283,0.176,0.445,0.455,0.489c0,0-0.046-0.038-0.045-0.037c0.158,0.17,0.316,0.34,0.476,0.51
	c8.677,9.494,15.858,20.02,21.701,31.467c-0.39,1.413,0.288,2.312,1.435,2.986c0,0-0.026-0.03-0.026-0.029
	c-0.067,0.415-0.024,0.774,0.46,0.912l-0.027-0.036c-0.064,0.41-0.021,0.767,0.442,0.923l-0.025-0.036
	c0.536,3.534,2.159,6.621,3.962,9.634c0,0-0.03-0.037-0.031-0.037c-0.041,0.522-0.199,1.087,0.5,1.331l-0.039-0.042
	c0.178,2.385,0.816,4.613,2.227,6.58c0,0-0.037-0.035-0.037-0.035c-0.058,2.727,1,5.227,1.658,7.796
	c0.756,2.952,0.766,6.098,2.256,8.86l-0.033-0.04c-0.049,1.357,0.131,2.699,0.223,4.041
	C300.469,133.665,301.618,135.556,300.485,137.456z"/>
<path fill-rule="evenodd" clip-rule="evenodd" fill="#61A3A1" d="M135.109,372.66c3.593,4.148,6.828,8.66,11.285,11.963
	c5.975,4.428,10.751,4.424,16.561-0.213c4.298-3.432,7.868-7.62,11.012-12.148c0.143-0.146,0.285-0.291,0.428-0.436
	c0.981-0.7,1.768-1.581,2.418-2.59c3.5,0.648,7.059,0.469,10.586,0.697c12.633,0.821,25.292,1.417,37.779,3.606
	c8.476,1.485,17.062,2.629,25.089,6.04c2.147,0.912,4.218,1.943,6.054,3.396c3.37,2.668,3.406,5.548,0.016,8.237
	c-3.357,2.664-7.344,4.04-11.389,5.224c-11.729,3.432-23.758,5.196-35.892,6.369c-7.313,0.706-14.622,1.477-21.94,2.145
	c-1.803,0.164-3.636-0.035-5.448,0.062c-7.955,0.422-15.909,0.789-23.879,0.854c-9.016,0.074-18.033-0.049-27.029-0.504
	c-17.211-0.872-34.391-2.195-51.391-5.214c-0.206-0.036-0.396-0.161-0.593-0.245c-1.215-1.041-2.81-0.983-4.227-1.258
	c-1.269-0.247-2.581-1.172-3.966-0.326c-5.775-1.105-11.397-2.697-16.565-5.575c-2.293-1.277-4.834-2.713-4.825-5.688
	c0.01-2.979,2.57-4.402,4.869-5.656c5.987-3.264,12.547-4.836,19.166-6.152c7.11-1.414,14.258-2.507,21.498-3.172
	c6.962-0.641,13.881-1.74,20.901-1.654c1.14,0.014,2.208-0.746,3.39-0.334c2.316,0.756,4.688,0.162,7.03,0.275
	c0.425,0.021,0.618-0.3,0.706-0.68c0.332-0.008,0.664-0.016,0.995-0.022c1.371,0.657,2.795,0.276,4.203,0.218
	c1.216,0.426,1.617,1.785,2.704,2.359C134.805,372.379,134.957,372.52,135.109,372.66z"/>
<path fill-rule="evenodd" clip-rule="evenodd" fill="#36A557" d="M134.652,372.238c-1.087-0.574-1.487-1.934-2.702-2.357
	c-0.082-0.111-0.177-0.213-0.288-0.304c-2.712-3.47-5.384-6.973-8.142-10.406c-20.503-25.53-40.921-51.128-60.168-77.631
	c-0.591-0.813-1.107-1.681-1.658-2.523c-0.321-1.159-0.057-1.84,1.144-2.509c11.672-6.503,22.987-13.581,33.379-22.01
	c5.177-4.2,10.171-8.626,15.106-13.123c6.402-5.832,12.24-12.18,18.027-18.59c1.501-1.662,2.936-3.383,4.402-5.078
	c1.329,0.261,0.894,1.331,0.894,2.108C134.661,270.623,134.656,321.431,134.652,372.238z"/>
<path fill-rule="evenodd" clip-rule="evenodd" fill="#2A8241" d="M271.094,243.954c-1.063,0.568-1.938,0.022-2.851-0.445
	c-10.498-5.371-20.39-11.687-29.663-18.972c-8.397-6.598-16.554-13.476-23.873-21.273c-6.375-6.794-12.053-14.134-16.43-22.399
	c-1.896-3.578-1.583-5.376,1.283-8.161c6.117-5.941,11.566-12.416,16.157-19.619c2.622-4.114,4.801-4.641,9.338-2.311
	c11.389,5.846,23.071,10.989,35.313,14.778c10.665,3.3,21.493,5.878,32.593,7.293c2.492,0.318,5.078,0.199,7.475,1.178
	c-0.783,4.808-1.67,9.592-3.317,14.198c-1.11,0.021-0.269,0.831-0.491,1.212c0,0,0.043-0.055,0.043-0.054
	c-1.305,1.51-1.391,3.438-1.807,5.252c-0.005,0.136-0.023,0.271-0.055,0.404c-1.186,2.385-2.503,4.726-2.516,7.504
	c0,0,0.03-0.029,0.029-0.029c-1.922,2.46-3.183,5.198-3.504,8.332l0.028-0.025c-1.776,1.475-2.653,3.375-2.683,5.675l0.025-0.039
	c-0.463,0.157-0.508,0.515-0.443,0.925c0,0,0.028-0.039,0.027-0.039c-0.48,0.137-0.527,0.496-0.467,0.91l0.023-0.029
	c-0.268,0.088-0.398,0.233-0.211,0.509c0,0-0.074,0.165-0.074,0.164c-1.012-0.093-0.563,0.645-0.623,1.092l0.025-0.039
	c-0.457,0.143-0.513,0.498-0.477,0.901l0.021-0.032c-0.264,0.101-0.383,0.271-0.273,0.556c0,0-0.018,0.067-0.018,0.066
	c-1.447,0.437-1.849,1.44-1.537,2.831C278.662,230.938,275,237.515,271.094,243.954z"/>
<path fill-rule="evenodd" clip-rule="evenodd" fill="#2A8241" d="M176.813,369.236c-0.65,1.009-1.437,1.89-2.418,2.59
	c-0.006-50.664-0.012-101.327-0.018-151.991c0-0.436,0.008-0.872,0.031-1.307c0.029-0.536,0.396-0.728,0.861-0.805
	c5.281,6.072,10.511,12.197,16.3,17.797c11.005,10.646,22.575,20.599,35.38,29.078c6.291,4.167,12.747,8.046,19.234,11.884
	c0.74,0.438,1.592,0.687,2.392,1.024c-9.922,13.959-20.267,27.605-30.874,41.045c-12.729,16.129-25.676,32.086-38.541,48.107
	C178.434,367.564,177.598,368.38,176.813,369.236z"/>
<path fill-rule="evenodd" clip-rule="evenodd" fill="#37A658" d="M8.61,174.062c12.467-1.375,24.735-3.724,36.786-7.243
	c11.745-3.429,23.052-7.922,33.92-13.53c1.871-0.966,3.688-2.039,5.574-2.973c3.293-1.632,5.942-1.156,7.952,1.899
	c3.518,5.349,7.382,10.401,11.604,15.207c1.588,1.808,3.323,3.454,4.991,5.173c2.973,3.063,3.346,5.115,1.272,8.756
	c-2.625,4.61-5.713,8.919-8.917,13.139c-4.669,6.149-10.05,11.66-15.63,16.969c-10.13,9.639-21.384,17.821-33.174,25.289
	c-4.357,2.76-8.9,5.196-13.47,7.58c-0.581-0.45-0.902-1.285-1.825-1.229l0.017,0.016c0.044-0.781,0.197-1.628-1.015-1.622
	c0,0-0.036-0.061-0.035-0.062c0.145-0.41,0.312-0.833-0.43-0.68c-0.076-0.045-0.116-0.112-0.119-0.202
	c0.33-1.097,0.151-1.901-1.176-2.045c0,0,0.008-0.127,0.009-0.127c0.074-0.332-0.11-0.501-0.384-0.615
	c-0.795-1.093-1.508-2.232-1.985-3.504c0.05-0.044,0.1-0.089,0.15-0.133c-0.096-0.063-0.19-0.126-0.286-0.188
	c0,0,0.043,0.011,0.044,0.011c0.052-1.149-0.2-2.137-1.386-2.632c0,0,0.093,0.03,0.092,0.03c-0.145-0.163-0.29-0.325-0.435-0.487
	c0,0,0.007-0.004,0.008-0.004c-0.04-0.355-0.024-0.74-0.467-0.881L30.324,230c-0.021-0.374-0.019-0.762-0.483-0.896
	c0,0,0.035,0.034,0.035,0.034c-0.031-1.289-0.307-2.449-1.612-3.069c-0.361-0.688-0.981-1.25-1.007-2.099
	c-0.23-1.136-0.289-2.384-1.765-2.707l0.017,0.02c0.031-0.402-0.024-0.757-0.483-0.893c0,0,0.025,0.036,0.026,0.036
	c0.049-0.412,0-0.771-0.482-0.895c0,0,0.027,0.035,0.027,0.035c0.065-0.418,0.023-0.78-0.476-0.899c0,0,0.028,0.032,0.028,0.032
	c-0.01-1.547-0.334-2.932-1.894-3.681c-0.098-0.065-0.126-0.153-0.083-0.264c0.447-0.536,0.248-1.054,0.005-1.606
	c-1.501-3.418-2.916-6.876-4.512-10.249c-0.548-1.158-0.233-2.832-1.849-3.417c0,0,0.031,0.016,0.032,0.015
	c-0.008-3.34-1.814-6.175-2.635-9.288c-0.049-0.186-0.456-0.278-0.696-0.414C10.846,184.643,9.545,179.398,8.61,174.062z"/>
<path fill-rule="evenodd" clip-rule="evenodd" fill="#36A557" d="M137.644,10.02c-3.54,0.561-7.079,1.123-10.618,1.683
	c-10.231,1.621-20.083,4.557-29.696,8.39c-1.632,0.65-3.104,1.978-5.076,1.616c9.029-4.466,18.573-7.417,28.381-9.554
	c5.643-1.229,11.317-2.305,17.109-2.573C137.711,9.727,137.677,9.873,137.644,10.02z"/>
<path fill-rule="evenodd" clip-rule="evenodd" fill="#36A557" d="M215.832,21.359c-0.309,0.412-0.717,0.467-1.148,0.262
	c-4.559-2.169-9.363-3.682-14.121-5.326c-0.32-0.111-0.582-0.399-0.871-0.605c2.512-0.001,4.666,1.247,6.964,1.991
	C209.797,18.699,212.85,19.944,215.832,21.359z"/>
<path fill-rule="evenodd" clip-rule="evenodd" fill="#36A557" d="M300.15,127.797c-1.49-2.762-1.5-5.908-2.256-8.86
	c-0.658-2.569-1.716-5.069-1.658-7.796C298.258,116.524,299.645,122.057,300.15,127.797z"/>
<path fill-rule="evenodd" clip-rule="evenodd" fill="#36A557" d="M199.346,15.631c-2.424-0.038-4.603-1.129-6.926-1.603
	c-2.258-0.46-4.518-0.912-6.758-1.448c-0.781-0.187-1.801-0.083-2.121-1.165c4.721,0.842,9.391,1.891,13.98,3.285
	C198.192,14.904,198.967,14.87,199.346,15.631z"/>
<path fill-rule="evenodd" clip-rule="evenodd" fill="#36A557" d="M15.816,199.482c1.616,0.585,1.301,2.259,1.849,3.417
	c1.596,3.373,3.01,6.831,4.512,10.249c0.243,0.552,0.442,1.071-0.005,1.606C19.668,209.824,17.574,204.723,15.816,199.482z"/>
<path fill-rule="evenodd" clip-rule="evenodd" fill="#36A557" d="M183.095,11.355c-2.088,1.008-4.072-0.3-6.116-0.273
	c-1.906,0.024-3.77-1.205-5.707-0.191c-0.395-0.342-0.33-0.829-0.4-1.273C174.978,9.973,179.051,10.559,183.095,11.355z"/>
<path fill-rule="evenodd" clip-rule="evenodd" fill="#36A557" d="M12.505,111.685c0.398,0.31,0.484,0.761,0.347,1.177
	c-1.154,3.501-1.873,7.109-2.692,10.693c-0.067,0.295-0.464,0.516-0.708,0.771C9.94,119.985,11.207,115.831,12.505,111.685z"/>
<path fill-rule="evenodd" clip-rule="evenodd" fill="#36A557" d="M19.614,93.237c0.602,1.036-0.211,1.778-0.55,2.614
	c-0.948,2.346-1.875,4.701-2.883,7.021c-0.299,0.688-0.418,1.594-1.371,1.823C16.153,100.768,17.69,96.921,19.614,93.237z"/>
<path fill-rule="evenodd" clip-rule="evenodd" fill="#36A557" d="M300.485,137.456c1.133-1.899-0.017-3.791-0.146-5.658
	c-0.092-1.342-0.271-2.684-0.223-4.041c0.898,2.394,1.115,4.915,1.388,7.426c0.097,0.892,0.171,1.786,0.255,2.678
	C301.308,137.81,300.816,137.887,300.485,137.456z"/>
<path fill-rule="evenodd" clip-rule="evenodd" fill="#36A557" d="M12.517,189.796c0.24,0.136,0.647,0.228,0.696,0.414
	c0.821,3.113,2.627,5.948,2.635,9.288C14.477,196.354,13.325,193.134,12.517,189.796z"/>
<path fill-rule="evenodd" clip-rule="evenodd" fill="#36A557" d="M293.617,103.343c-1.803-3.013-3.426-6.1-3.962-9.634
	C291.289,96.791,292.768,99.938,293.617,103.343z"/>
<path fill-rule="evenodd" clip-rule="evenodd" fill="#36A557" d="M8.945,128.179c0.195,3.254-0.951,6.391-0.841,9.637
	c-0.271,0.022-0.542,0.045-0.813,0.068C7.687,134.623,7.69,131.294,8.945,128.179z"/>
<path fill-rule="evenodd" clip-rule="evenodd" fill="#2A8241" d="M288.818,210.842c0.321-3.133,1.582-5.872,3.504-8.332
	C291.397,205.39,290.248,208.175,288.818,210.842z"/>
<path fill-rule="evenodd" clip-rule="evenodd" fill="#007550" d="M126.751,369.684c-0.088,0.38-0.281,0.7-0.706,0.68
	c-2.343-0.113-4.714,0.48-7.03-0.275C121.594,369.953,124.172,369.818,126.751,369.684z"/>
<path fill-rule="evenodd" clip-rule="evenodd" fill="#2A8241" d="M292.293,202.54c0.013-2.778,1.33-5.119,2.516-7.504
	C294.631,197.758,293.328,200.104,292.293,202.54z"/>
<path fill-rule="evenodd" clip-rule="evenodd" fill="#007550" d="M70.582,398.32c1.385-0.846,2.697,0.079,3.966,0.326
	c1.417,0.274,3.012,0.217,4.227,1.258C76.043,399.377,73.313,398.849,70.582,398.32z"/>
<path fill-rule="evenodd" clip-rule="evenodd" fill="#36A557" d="M296.273,111.175c-1.41-1.967-2.049-4.195-2.227-6.58
	C295.203,106.648,295.918,108.851,296.273,111.175z"/>
<path fill-rule="evenodd" clip-rule="evenodd" fill="#2A8241" d="M286.164,216.493c0.029-2.3,0.906-4.201,2.683-5.675
	C288.191,212.822,287.239,214.687,286.164,216.493z"/>
<path fill-rule="evenodd" clip-rule="evenodd" fill="#2A8241" d="M294.863,194.632c0.416-1.815,0.502-3.743,1.807-5.252
	C296.344,191.225,296.084,193.093,294.863,194.632z"/>
<path fill-rule="evenodd" clip-rule="evenodd" fill="#36A557" d="M220.283,23.445c-1.686,0.168-3.063-0.323-3.953-1.851
	C217.713,22.073,219.057,22.632,220.283,23.445z"/>
<path fill-rule="evenodd" clip-rule="evenodd" fill="#36A557" d="M22.255,215.019c1.56,0.749,1.884,2.134,1.894,3.681
	C23.292,217.589,22.791,216.295,22.255,215.019z"/>
<path fill-rule="evenodd" clip-rule="evenodd" fill="#2A8241" d="M282.164,224.27c-0.312-1.39,0.09-2.394,1.537-2.831
	C283.189,222.383,282.677,223.327,282.164,224.27z"/>
<path fill-rule="evenodd" clip-rule="evenodd" fill="#36A557" d="M229.457,28.235c-1.371,0.032-2.605-0.181-3.107-1.72
	C227.474,26.93,228.518,27.488,229.457,28.235z"/>
<path fill-rule="evenodd" clip-rule="evenodd" fill="#36A557" d="M24.621,83.671c-0.012,1.351-0.204,2.6-1.741,3.093
	C23.311,85.648,23.853,84.596,24.621,83.671z"/>
<path fill-rule="evenodd" clip-rule="evenodd" fill="#36A557" d="M288.832,91.975c-1.146-0.674-1.824-1.574-1.435-2.986
	C287.98,89.934,288.563,90.878,288.832,91.975z"/>
<path fill-rule="evenodd" clip-rule="evenodd" fill="#007550" d="M28.264,226.068c1.305,0.62,1.581,1.78,1.612,3.069
	C29.275,228.147,28.388,227.308,28.264,226.068z"/>
<path fill-rule="evenodd" clip-rule="evenodd" fill="#36A557" d="M25.492,221.263c1.476,0.323,1.535,1.571,1.765,2.707
	C26.179,223.386,25.917,222.271,25.492,221.263z"/>
<path fill-rule="evenodd" clip-rule="evenodd" fill="#36A557" d="M237.313,33.036c-1.344,0.129-2.299-0.343-2.669-1.723
	C235.633,31.733,236.552,32.263,237.313,33.036z"/>
<path fill-rule="evenodd" clip-rule="evenodd" fill="#007550" d="M31.098,231.317c1.187,0.495,1.438,1.483,1.386,2.632
	C31.807,233.186,31.343,232.309,31.098,231.317z"/>
<path fill-rule="evenodd" clip-rule="evenodd" fill="#36A557" d="M256.161,47.698c-1.353,0.323-1.771-0.426-1.825-1.591
	C254.944,46.638,255.553,47.168,256.161,47.698z"/>
<path fill-rule="evenodd" clip-rule="evenodd" fill="#007550" d="M131.663,369.577c0.11,0.091,0.206,0.192,0.288,0.304
	c-1.409,0.057-2.833,0.438-4.204-0.22C129.052,369.633,130.357,369.605,131.663,369.577z"/>
<path fill-rule="evenodd" clip-rule="evenodd" fill="#36A557" d="M25.905,81.47c0.084,1.043,0.086,2.038-1.301,2.219
	C24.891,82.863,25.27,82.091,25.905,81.47z"/>
<path fill-rule="evenodd" clip-rule="evenodd" fill="#36A557" d="M28.562,77.135c0.009,1.012,0.059,2.05-1.36,2.167
	C27.517,78.494,27.945,77.756,28.562,77.135z"/>
<path fill-rule="evenodd" clip-rule="evenodd" fill="#36A557" d="M37.693,243.101c0.922-0.057,1.244,0.779,1.825,1.229
	c-0.281,0.149-0.562,0.3-0.843,0.45C38.348,244.22,38.021,243.66,37.693,243.101z"/>
<path fill-rule="evenodd" clip-rule="evenodd" fill="#36A557" d="M34.935,238.507c1.327,0.145,1.505,0.948,1.176,2.045
	C35.718,239.871,35.327,239.189,34.935,238.507z"/>
<path fill-rule="evenodd" clip-rule="evenodd" fill="#36A557" d="M264.838,56.571c-1.015,0.094-1.502-0.288-1.227-1.358
	C264.021,55.666,264.43,56.119,264.838,56.571z"/>
<path fill-rule="evenodd" clip-rule="evenodd" fill="#36A557" d="M45.012,55.658c0.247,1.049-0.241,1.437-1.233,1.369
	C44.189,56.571,44.601,56.115,45.012,55.658z"/>
<path fill-rule="evenodd" clip-rule="evenodd" fill="#36A557" d="M231.653,29.52c-0.793,0.088-1.648,0.279-1.598-0.993
	C230.588,28.858,231.121,29.189,231.653,29.52z"/>
<path fill-rule="evenodd" clip-rule="evenodd" fill="#36A557" d="M36.695,241.495c1.212-0.007,1.06,0.841,1.015,1.622
	C37.372,242.576,37.033,242.035,36.695,241.495z"/>
<path fill-rule="evenodd" clip-rule="evenodd" fill="#36A557" d="M27.217,79.29c0.104,0.694,0.154,1.355-0.848,1.362
	C26.528,80.12,26.764,79.637,27.217,79.29z"/>
<path fill-rule="evenodd" clip-rule="evenodd" fill="#36A557" d="M233.836,30.829c-0.707,0.131-1.371,0.189-1.359-0.841
	C233.02,30.123,233.483,30.386,233.836,30.829z"/>
<path fill-rule="evenodd" clip-rule="evenodd" fill="#36A557" d="M22.191,88.006c0.307,0.817,0.231,1.436-0.807,1.555
	C21.652,89.042,21.921,88.523,22.191,88.006z"/>
<path fill-rule="evenodd" clip-rule="evenodd" fill="#36A557" d="M55.142,45.671c0.072,0.704-0.221,0.996-0.927,0.82
	C54.523,46.217,54.832,45.944,55.142,45.671z"/>
<path fill-rule="evenodd" clip-rule="evenodd" fill="#2A8241" d="M296.627,189.434c0.223-0.381-0.619-1.191,0.491-1.212
	C296.998,188.644,297.139,189.17,296.627,189.434z"/>
<path fill-rule="evenodd" clip-rule="evenodd" fill="#36A557" d="M29.048,76.328c0.657,0.776,0.054,0.787-0.502,0.826
	C28.714,76.878,28.881,76.603,29.048,76.328z"/>
<path fill-rule="evenodd" clip-rule="evenodd" fill="#36A557" d="M249.16,41.665c-0.719,0.221-0.99-0.117-0.988-0.794
	C248.502,41.135,248.831,41.4,249.16,41.665z"/>
<path fill-rule="evenodd" clip-rule="evenodd" fill="#36A557" d="M20.25,91.959c-0.015,0.488,0.318,1.153-0.604,1.178
	C19.846,92.744,20.048,92.351,20.25,91.959z"/>
<path fill-rule="evenodd" clip-rule="evenodd" fill="#36A557" d="M253.891,45.708c-0.637,0.073-0.938-0.219-0.926-0.852
	C253.273,45.139,253.582,45.423,253.891,45.708z"/>
<path fill-rule="evenodd" clip-rule="evenodd" fill="#2A8241" d="M284.422,219.986c0.061-0.447-0.389-1.186,0.623-1.092
	C284.838,219.259,284.629,219.623,284.422,219.986z"/>
<path fill-rule="evenodd" clip-rule="evenodd" fill="#36A557" d="M22.896,86.744c-0.064,0.454,0.318,1.167-0.64,1.104
	C22.468,87.479,22.682,87.111,22.896,86.744z"/>
<path fill-rule="evenodd" clip-rule="evenodd" fill="#36A557" d="M294.086,104.637c-0.699-0.244-0.541-0.809-0.5-1.331
	C294.158,103.598,294.008,104.16,294.086,104.637z"/>
<path fill-rule="evenodd" clip-rule="evenodd" fill="#36A557" d="M234.664,31.33c-0.408,0.024-0.768-0.033-0.861-0.526
	C234.09,30.979,234.377,31.154,234.664,31.33z"/>
<path fill-rule="evenodd" clip-rule="evenodd" fill="#36A557" d="M221.155,23.884c-0.409,0.054-0.768,0.005-0.909-0.466
	C220.549,23.574,220.853,23.729,221.155,23.884z"/>
<path fill-rule="evenodd" clip-rule="evenodd" fill="#36A557" d="M222.038,24.306c-0.413,0.068-0.772,0.024-0.923-0.449
	C221.471,23.909,221.836,23.939,222.038,24.306z"/>
<path fill-rule="evenodd" clip-rule="evenodd" fill="#36A557" d="M222.909,24.744c-0.415,0.065-0.775,0.02-0.909-0.466
	C222.303,24.433,222.605,24.589,222.909,24.744z"/>
<path fill-rule="evenodd" clip-rule="evenodd" fill="#36A557" d="M223.779,25.187c-0.414,0.06-0.773,0.013-0.907-0.47
	C223.174,24.874,223.477,25.031,223.779,25.187z"/>
<path fill-rule="evenodd" clip-rule="evenodd" fill="#36A557" d="M224.641,25.638c-0.409,0.046-0.766-0.006-0.902-0.479
	C224.04,25.319,224.341,25.479,224.641,25.638z"/>
<path fill-rule="evenodd" clip-rule="evenodd" fill="#36A557" d="M225.506,26.084c-0.403,0.038-0.759-0.017-0.904-0.472
	C224.902,25.77,225.204,25.927,225.506,26.084z"/>
<path fill-rule="evenodd" clip-rule="evenodd" fill="#36A557" d="M226.37,26.531c-0.397,0.03-0.749-0.028-0.902-0.47
	C225.769,26.218,226.069,26.374,226.37,26.531z"/>
<path fill-rule="evenodd" clip-rule="evenodd" fill="#36A557" d="M289.266,92.857c-0.484-0.137-0.527-0.497-0.46-0.912
	C288.959,92.25,289.112,92.553,289.266,92.857z"/>
<path fill-rule="evenodd" clip-rule="evenodd" fill="#36A557" d="M232.494,30.005c-0.412,0.04-0.773-0.012-0.873-0.51
	C231.912,29.665,232.203,29.834,232.494,30.005z"/>
<path fill-rule="evenodd" clip-rule="evenodd" fill="#36A557" d="M250.409,42.687c-0.405-0.018-0.835-0.006-0.716-0.625
	C249.933,42.269,250.171,42.478,250.409,42.687z"/>
<path fill-rule="evenodd" clip-rule="evenodd" fill="#007550" d="M29.841,229.104c0.465,0.135,0.462,0.522,0.483,0.896
	C30.163,229.701,30.002,229.402,29.841,229.104z"/>
<path fill-rule="evenodd" clip-rule="evenodd" fill="#36A557" d="M238.631,33.895c-0.429,0.054-0.817,0.051-0.787-0.552
	C238.107,33.526,238.369,33.711,238.631,33.895z"/>
<path fill-rule="evenodd" clip-rule="evenodd" fill="#007550" d="M30.295,229.976c0.443,0.142,0.427,0.526,0.467,0.881
	C30.606,230.563,30.451,230.27,30.295,229.976z"/>
<path fill-rule="evenodd" clip-rule="evenodd" fill="#36A557" d="M239.931,34.785c-0.426,0.039-0.813,0.028-0.774-0.568
	C239.414,34.405,239.672,34.595,239.931,34.785z"/>
<path fill-rule="evenodd" clip-rule="evenodd" fill="#36A557" d="M36.23,240.754c0.742-0.153,0.575,0.27,0.43,0.68
	C36.516,241.208,36.373,240.981,36.23,240.754z"/>
<path fill-rule="evenodd" clip-rule="evenodd" fill="#36A557" d="M247.758,40.518c-0.409-0.008-0.788-0.058-0.793-0.601
	C247.229,40.117,247.494,40.317,247.758,40.518z"/>
<path fill-rule="evenodd" clip-rule="evenodd" fill="#36A557" d="M252.981,44.871c-0.407-0.007-0.793-0.041-0.723-0.613
	C252.5,44.461,252.74,44.666,252.981,44.871z"/>
<path fill-rule="evenodd" clip-rule="evenodd" fill="#36A557" d="M26.386,80.631c0.026,0.405-0.033,0.761-0.508,0.876
	C26.047,81.215,26.216,80.924,26.386,80.631z"/>
<path fill-rule="evenodd" clip-rule="evenodd" fill="#36A557" d="M21.115,90.207c0.06,0.411,0.013,0.769-0.456,0.917
	C20.812,90.818,20.963,90.512,21.115,90.207z"/>
<path fill-rule="evenodd" clip-rule="evenodd" fill="#36A557" d="M20.687,91.084c0.052,0.409,0.003,0.767-0.463,0.913
	C20.267,91.636,20.327,91.284,20.687,91.084z"/>
<path fill-rule="evenodd" clip-rule="evenodd" fill="#36A557" d="M289.681,93.744c-0.464-0.156-0.507-0.513-0.442-0.923
	C289.592,93.03,289.637,93.387,289.681,93.744z"/>
<path fill-rule="evenodd" clip-rule="evenodd" fill="#36A557" d="M258.679,50.115c-0.384-0.036-0.834-0.004-0.637-0.63
	C258.254,49.694,258.467,49.904,258.679,50.115z"/>
<path fill-rule="evenodd" clip-rule="evenodd" fill="#36A557" d="M262.314,53.791c-0.6,0.16-0.6-0.263-0.633-0.652
	C261.893,53.356,262.104,53.573,262.314,53.791z"/>
<path fill-rule="evenodd" clip-rule="evenodd" fill="#36A557" d="M47.356,53.137c-0.037,0.386-0.023,0.822-0.634,0.639
	C46.933,53.562,47.145,53.349,47.356,53.137z"/>
<path fill-rule="evenodd" clip-rule="evenodd" fill="#36A557" d="M51.864,48.616c0.201,0.613-0.242,0.59-0.623,0.63
	C51.449,49.035,51.656,48.826,51.864,48.616z"/>
<path fill-rule="evenodd" clip-rule="evenodd" fill="#2A8241" d="M285.746,217.379c-0.064-0.41-0.02-0.768,0.443-0.925
	C286.146,216.813,286.105,217.172,285.746,217.379z"/>
<path fill-rule="evenodd" clip-rule="evenodd" fill="#2A8241" d="M285.307,218.25c-0.061-0.414-0.014-0.773,0.467-0.91
	C285.618,217.644,285.463,217.947,285.307,218.25z"/>
<path fill-rule="evenodd" clip-rule="evenodd" fill="#36A557" d="M24.121,218.667c0.499,0.119,0.541,0.481,0.476,0.899
	C24.438,219.267,24.28,218.967,24.121,218.667z"/>
<path fill-rule="evenodd" clip-rule="evenodd" fill="#36A557" d="M24.569,219.531c0.482,0.125,0.531,0.483,0.482,0.895
	C24.891,220.128,24.73,219.83,24.569,219.531z"/>
<path fill-rule="evenodd" clip-rule="evenodd" fill="#2A8241" d="M283.971,220.849c-0.036-0.403,0.02-0.759,0.477-0.901
	C284.288,220.248,284.129,220.549,283.971,220.849z"/>
<path fill-rule="evenodd" clip-rule="evenodd" fill="#36A557" d="M25.025,220.39c0.459,0.136,0.515,0.491,0.483,0.893
	C25.348,220.985,25.187,220.688,25.025,220.39z"/>
<path fill-rule="evenodd" clip-rule="evenodd" fill="#36A557" d="M229.956,28.486c-0.293,0.135-0.449,0.005-0.528-0.274
	C229.604,28.303,229.78,28.395,229.956,28.486z"/>
<path fill-rule="evenodd" clip-rule="evenodd" fill="#36A557" d="M237.822,33.342c-0.298,0.084-0.465-0.045-0.539-0.329
	C237.463,33.123,237.643,33.232,237.822,33.342z"/>
<path fill-rule="evenodd" clip-rule="evenodd" fill="#36A557" d="M239.135,34.213c-0.303,0.084-0.467-0.048-0.529-0.338
	C238.781,33.987,238.958,34.1,239.135,34.213z"/>
<path fill-rule="evenodd" clip-rule="evenodd" fill="#36A557" d="M240.436,35.133c-0.295,0.044-0.467-0.09-0.536-0.372
	C240.078,34.885,240.256,35.009,240.436,35.133z"/>
<path fill-rule="evenodd" clip-rule="evenodd" fill="#36A557" d="M257.467,48.959c-0.334,0.138-0.437,0.026-0.332-0.309
	C257.246,48.752,257.356,48.856,257.467,48.959z"/>
<path fill-rule="evenodd" clip-rule="evenodd" fill="#36A557" d="M263.581,55.194c-0.323,0.026-0.462-0.103-0.358-0.433
	C263.342,54.905,263.461,55.05,263.581,55.194z"/>
<path fill-rule="evenodd" clip-rule="evenodd" fill="#36A557" d="M257.035,48.546c-0.335,0.121-0.447-0.003-0.37-0.337
	C256.789,48.321,256.912,48.434,257.035,48.546z"/>
<path fill-rule="evenodd" clip-rule="evenodd" fill="#36A557" d="M52.315,48.222c0.113,0.32,0.031,0.435-0.303,0.286
	C52.068,48.363,52.169,48.269,52.315,48.222z"/>
<path fill-rule="evenodd" clip-rule="evenodd" fill="#36A557" d="M256.604,48.144c-0.333,0.092-0.458-0.036-0.392-0.37
	C256.344,47.896,256.475,48.02,256.604,48.144z"/>
<path fill-rule="evenodd" clip-rule="evenodd" fill="#36A557" d="M45.792,54.767c0.118,0.331-0.015,0.451-0.343,0.411
	C45.563,55.04,45.678,54.903,45.792,54.767z"/>
<path fill-rule="evenodd" clip-rule="evenodd" fill="#36A557" d="M263.15,54.674c-0.332,0.099-0.453-0.012-0.346-0.351
	C262.921,54.439,263.035,54.557,263.15,54.674z"/>
<path fill-rule="evenodd" clip-rule="evenodd" fill="#36A557" d="M52.79,47.778c0.092,0.332-0.016,0.456-0.355,0.336
	C52.553,48.001,52.671,47.89,52.79,47.778z"/>
<path fill-rule="evenodd" clip-rule="evenodd" fill="#36A557" d="M53.272,47.342c0.055,0.329-0.069,0.463-0.404,0.372
	C53.002,47.589,53.137,47.466,53.272,47.342z"/>
<path fill-rule="evenodd" clip-rule="evenodd" fill="#36A557" d="M21.313,89.722c0.177,0.278,0.047,0.426-0.22,0.514
	C21.166,90.064,21.239,89.894,21.313,89.722z"/>
<path fill-rule="evenodd" clip-rule="evenodd" fill="#36A557" d="M46.186,54.34c0.143,0.329,0.035,0.435-0.302,0.335
	C45.984,54.562,46.085,54.451,46.186,54.34z"/>
<path fill-rule="evenodd" clip-rule="evenodd" fill="#36A557" d="M254.354,46.136c-0.165-0.151-0.331-0.302-0.497-0.453
	C254.022,45.833,254.189,45.985,254.354,46.136z"/>
<path fill-rule="evenodd" clip-rule="evenodd" fill="#36A557" d="M262.711,54.221c-0.332,0.112-0.447,0.009-0.326-0.331
	C262.495,54,262.604,54.11,262.711,54.221z"/>
<path fill-rule="evenodd" clip-rule="evenodd" fill="#36A557" d="M46.614,53.906c0.142,0.323,0.047,0.418-0.281,0.29
	C46.38,54.055,46.475,53.958,46.614,53.906z"/>
<path fill-rule="evenodd" clip-rule="evenodd" fill="#36A557" d="M265.266,57.048c-0.279-0.044-0.433-0.206-0.455-0.489
	C264.962,56.721,265.113,56.885,265.266,57.048z"/>
<path fill-rule="evenodd" clip-rule="evenodd" fill="#2A8241" d="M283.719,221.373c-0.109-0.284,0.01-0.455,0.273-0.556
	C283.9,221.002,283.811,221.188,283.719,221.373z"/>
<path fill-rule="evenodd" clip-rule="evenodd" fill="#36A557" d="M55.628,45.227c-0.169,0.161-0.339,0.322-0.509,0.483
	C55.289,45.549,55.458,45.388,55.628,45.227z"/>
<path fill-rule="evenodd" clip-rule="evenodd" fill="#36A557" d="M43.811,57.008c-0.157,0.172-0.313,0.343-0.471,0.515
	C43.497,57.352,43.654,57.18,43.811,57.008z"/>
<path fill-rule="evenodd" clip-rule="evenodd" fill="#36A557" d="M252.235,44.244c-0.318,0.08-0.466-0.059-0.476-0.374
	C251.918,43.994,252.077,44.119,252.235,44.244z"/>
<path fill-rule="evenodd" clip-rule="evenodd" fill="#36A557" d="M45.423,55.203c0.062,0.32-0.078,0.465-0.396,0.457
	C45.159,55.508,45.291,55.355,45.423,55.203z"/>
<path fill-rule="evenodd" clip-rule="evenodd" fill="#36A557" d="M265.696,57.521c-0.159-0.17-0.317-0.34-0.476-0.51
	C265.379,57.181,265.537,57.351,265.696,57.521z"/>
<path fill-rule="evenodd" clip-rule="evenodd" fill="#2A8241" d="M285.119,218.73c-0.188-0.276-0.057-0.421,0.211-0.509
	C285.26,218.391,285.189,218.561,285.119,218.73z"/>
<path fill-rule="evenodd" clip-rule="evenodd" fill="#36A557" d="M251.777,43.889c-0.299,0.015-0.461-0.131-0.498-0.424
	C251.445,43.605,251.611,43.747,251.777,43.889z"/>
<path fill-rule="evenodd" clip-rule="evenodd" fill="#007550" d="M32.44,233.938c0.095,0.063,0.19,0.125,0.286,0.188
	c-0.05,0.044-0.1,0.089-0.15,0.133C32.494,234.168,32.448,234.061,32.44,233.938z"/>
<path fill-rule="evenodd" clip-rule="evenodd" fill="#36A557" d="M34.56,237.765c0.274,0.113,0.458,0.283,0.384,0.615
	C34.815,238.175,34.688,237.97,34.56,237.765z"/>
<path fill-rule="evenodd" clip-rule="evenodd" fill="#36A557" d="M251.315,43.507c-0.173-0.159-0.347-0.319-0.52-0.479
	C250.969,43.188,251.143,43.348,251.315,43.507z"/>
<path fill-rule="evenodd" clip-rule="evenodd" fill="#36A557" d="M257.889,49.362c-0.324,0.16-0.408,0.054-0.293-0.27
	C257.736,49.136,257.834,49.226,257.889,49.362z"/>
<path fill-rule="evenodd" clip-rule="evenodd" fill="#36A557" d="M92.274,21.688c-0.047,0.306-0.151,0.416-0.376,0.11
	C92.011,21.718,92.136,21.682,92.274,21.688z"/>
<path fill-rule="evenodd" clip-rule="evenodd" fill="#36A557" d="M249.61,41.999c-0.321,0.134-0.448-0.004-0.448-0.321
	C249.312,41.784,249.461,41.892,249.61,41.999z"/>
<path fill-rule="evenodd" clip-rule="evenodd" fill="#36A557" d="M53.75,46.916c0.024,0.321-0.117,0.461-0.441,0.403
	C53.455,47.185,53.602,47.05,53.75,46.916z"/>
<path fill-rule="evenodd" clip-rule="evenodd" fill="#36A557" d="M54.22,46.495c0,0.31-0.152,0.455-0.465,0.425
	C53.91,46.778,54.064,46.636,54.22,46.495z"/>
<path fill-rule="evenodd" clip-rule="evenodd" fill="#36A557" d="M246.984,39.959c-0.311,0.006-0.48-0.158-0.545-0.449
	C246.621,39.659,246.803,39.809,246.984,39.959z"/>
<path fill-rule="evenodd" clip-rule="evenodd" fill="#36A557" d="M240.713,35.283c-0.086,0.059-0.174,0.118-0.26,0.177
	c0.004-0.11,0.01-0.219,0.015-0.329C240.583,35.128,240.664,35.179,240.713,35.283z"/>
<path fill-rule="evenodd" clip-rule="evenodd" fill="#007550" d="M30.755,230.861c0.145,0.162,0.29,0.324,0.435,0.487
	C30.864,231.347,30.811,231.103,30.755,230.861z"/>
<path fill-rule="evenodd" clip-rule="evenodd" fill="#37A658" d="M134.652,372.238c0.003-50.808,0.009-101.615-0.006-152.422
	c0-0.778,0.435-1.848-0.894-2.108c0.344-0.46,0.689-0.921,1.356-1.812c0,52.562,0,104.663,0,156.764
	C134.957,372.52,134.805,372.379,134.652,372.238z"/>
<path fill-rule="evenodd" clip-rule="evenodd" fill="#2A8241" d="M175.27,217.724c-0.466,0.077-0.832,0.269-0.861,0.805
	c-0.023,0.435-0.031,0.871-0.031,1.307c0.006,50.664,0.012,101.327,0.018,151.991c-0.143,0.145-0.285,0.29-0.428,0.436
	c-0.018-18.018-0.047-36.035-0.049-54.053c-0.006-33.203,0.004-66.406,0.008-99.609c0-0.715,0-1.431,0-2.589
	C174.531,216.783,174.9,217.254,175.27,217.724z"/>
</svg>
